<svg width="17" height="17" xmlns="http://www.w3.org/2000/svg" xmlns:xlink="http://www.w3.org/1999/xlink" xmlns:svgjs="http://svgjs.com/svgjs" viewBox="0 0.496 17 16.007" fill="#008ed6"><svg xmlns="http://www.w3.org/2000/svg" width="17" height="17" viewBox="2.088 1.283 15.926 14.996"><path paint-order="stroke fill markers" fill-rule="evenodd" d="M10.014 10.308c-2.755 0-4.997-2.395-4.997-5.338V1.783a.5.5 0 0 1 .5-.5h8.993a.5.5 0 0 1 .5.5V4.97c0 2.943-2.241 5.338-4.996 5.338zM6.017 2.283V4.97c0 2.392 1.793 4.338 3.997 4.338 2.203 0 3.996-1.946 3.996-4.338V2.283H6.017zm3.992 12.476a.5.5 0 0 1-.5-.5v-4.14a.5.5 0 1 1 1 0v4.14a.5.5 0 0 1-.5.5zm2.045.005H8.012a.5.5 0 1 1 0-1h4.042a.5.5 0 1 1 0 1zm1.494 1.515h-7.03a.5.5 0 1 1 0-1h7.03a.5.5 0 1 1 0 1zm1.076-9.495a.5.5 0 1 1 0-1c.887 0 1.533-.24 1.921-.713.443-.54.487-1.334.465-1.79h-2.303a.5.5 0 1 1 0-1h2.75a.5.5 0 0 1 .49.4c.015.073.35 1.825-.624 3.018-.587.72-1.495 1.085-2.7 1.085zm-9.145 0c-1.205 0-2.113-.365-2.7-1.085-.973-1.193-.638-2.945-.623-3.018a.5.5 0 0 1 .49-.4h2.75a.5.5 0 1 1 0 1H3.093c-.023.456.022 1.25.465 1.79.387.473 1.034.713 1.921.713a.5.5 0 1 1 0 1z"/></svg></svg>