<svg width="33" height="23" xmlns="http://www.w3.org/2000/svg" xmlns:xlink="http://www.w3.org/1999/xlink" xmlns:svgjs="http://svgjs.com/svgjs" viewBox="0 0.156 33 22.688" fill="#008ed6"><svg xmlns="http://www.w3.org/2000/svg" width="33" height="23" viewBox="2 1.015 32 22"><path paint-order="stroke fill markers" fill-rule="evenodd" d="M31.5 3.015c.552 0 .5-.051.5.5v16c0 .552.052 1.5-.5 1.5h-26c-.551 0-1.5-.948-1.5-1.5v-16c0-.551.949-.5 1.5-.5h26m0-2h-26c-1.657 0-3.5.843-3.5 2.5v16c0 1.657 1.843 3.5 3.5 3.5h26c1.657 0 2.5-1.843 2.5-3.5v-16c0-1.657-.843-2.5-2.5-2.5zM18 16.109a.997.997 0 0 1-.655-.244l-15-12a1 1 0 0 1 1.31-1.512L18 13.785 32.345 2.353a1.001 1.001 0 0 1 1.31 1.511l-15 12a.997.997 0 0 1-.655.245z"/></svg></svg>