<svg width="11" height="18" xmlns="http://www.w3.org/2000/svg" xmlns:xlink="http://www.w3.org/1999/xlink" xmlns:svgjs="http://svgjs.com/svgjs" viewBox="0.439 0 10.122 18" fill="#008ed6"><svg xmlns="http://www.w3.org/2000/svg" width="11" height="18" viewBox="1.512 1.781 8.998 16"><path paint-order="stroke fill markers" fill-rule="evenodd" d="M6.035 2.78a3.478 3.478 0 0 1 3.474 3.475v7.052a3.478 3.478 0 0 1-3.474 3.474c-1.916 0-3.523-1.559-3.523-3.474V6.255c0-1.915 1.607-3.474 3.523-3.474 1.916 0 0 0 0 0m0-1c-2.47 0-4.523 2.003-4.523 4.474v7.052c0 2.47 2.052 4.474 4.523 4.474a4.474 4.474 0 0 0 4.474-4.474V6.255a4.474 4.474 0 0 0-4.474-4.474zm-.02 3a.5.5 0 0 1 .5.5v2.5a.5.5 0 0 1-1 0v-2.5a.5.5 0 0 1 .5-.5z"/></svg></svg>