<svg width="25" height="33" xmlns="http://www.w3.org/2000/svg" xmlns:xlink="http://www.w3.org/1999/xlink" xmlns:svgjs="http://svgjs.com/svgjs" viewBox="0.125 0 24.75 33" fill="#008ed6"><svg xmlns="http://www.w3.org/2000/svg" width="25" height="33" viewBox="1.01 1.988 24 32"><path paint-order="stroke fill markers" fill-rule="evenodd" d="M13.125 3.988c6.829 0 9.885 5.125 9.885 10.205 0 4.475-3.19 10.415-9.483 17.656a1.047 1.047 0 0 1-.131.107 1.1 1.1 0 0 1-.133-.107l-.524-.601C8.633 26.538 3.01 20.087 3.01 14.193c0-5.532 4.632-10.205 10.115-10.205 5.483 0 0 0 0 0m0-2C6.566 1.988 1.01 7.575 1.01 14.193c0 6.93 6.439 14.017 10.77 18.998.016.02.716.797 1.579.797h.076c.862 0 1.558-.777 1.575-.797 4.065-4.673 10-12.377 10-18.998 0-6.618-4.333-12.205-11.885-12.205zM13 10c2.206 0 4 1.794 4 4s-1.748 4.044-3.954 4.044C10.84 18.044 9 16.206 9 14c0-2.206 1.794-4 4-4m.046-1.956a6 6 0 1 0 0 12 6 6 0 0 0 0-12z"/></svg></svg>