<svg width="33" height="33" xmlns="http://www.w3.org/2000/svg" xmlns:xlink="http://www.w3.org/1999/xlink" xmlns:svgjs="http://svgjs.com/svgjs" fill="#008ed6"><svg xmlns="http://www.w3.org/2000/svg" width="33" height="33" viewBox="2 2 32 32"><path paint-order="stroke fill markers" fill-rule="evenodd" d="M32.016 14.97l-2.567-.569a11.78 11.78 0 0 0-.763-1.841l1.39-2.314c.518-.828.78-2.047 0-2.828L28.66 6.004c-.78-.781-2.099-.64-2.894-.089L23.515 7.35a11.95 11.95 0 0 0-1.83-.767l-.576-2.598C20.937 3.031 20.104 2 19 2H17c-1.105 0-1.781 1.047-2 2l-.642 2.566c-.677.216-1.328.492-1.947.819l-2.308-1.47c-.795-.552-2.114-.692-2.895.089L5.794 7.418c-.78.78-.52 2 0 2.828l1.46 2.435a11.895 11.895 0 0 0-.704 1.72l-2.566.57C3.031 15.142 2 15.975 2 17.08v2c0 1.104 1.047 1.781 2 2l2.599.65c.18.55.403 1.08.658 1.592L5.794 25.76c-.519.829-.78 2.047 0 2.829l1.415 1.414c.78.781 2.099.64 2.894.088l2.313-1.473c.624.329 1.277.607 1.96.823l.64 2.56c.218.953.895 2 2 2h2c1.104 0 1.937-1.031 2.109-1.985l.577-2.604c.628-.203 1.23-.46 1.808-.758l2.256 1.437c.795.552 2.114.693 2.894-.088l1.415-1.414c.78-.782.519-2 0-2.829l-1.39-2.316c.28-.549.522-1.12.716-1.714L32 21.08c.953-.218 2-.895 2-2v-2c0-1.104-1.031-1.937-1.984-2.108zM32 18.94a1.31 1.31 0 0 1-.448.192l-3.708.925-.344 1.051c-.155.474-.357.954-.598 1.429l-.502.986 1.96 3.267c.124.2.183.378.2.484l-1.315 1.314a1.554 1.554 0 0 1-.34-.14l-3.293-2.1-1.023.53a9.844 9.844 0 0 1-1.503.63l-1.09.353-.824 3.723c-.038.199-.145.36-.217.417h-1.8a1.302 1.302 0 0 1-.191-.448l-.92-3.681-1.066-.338a9.807 9.807 0 0 1-1.63-.685l-1.028-.543-3.292 2.099a.754.754 0 0 1-.41.142L7.309 27.27c.018-.103.072-.274.181-.449l2.046-3.408-.487-.98A9.808 9.808 0 0 1 8.5 21.11l-.343-1.052-3.672-.918a1.414 1.414 0 0 1-.485-.2v-1.86l.004.002c.034 0 .198-.118.335-.142l3.773-.836.346-1.102c.142-.45.334-.917.588-1.43l.487-.981-2.024-3.373a1.425 1.425 0 0 1-.201-.484l1.314-1.315c.128.041.272.093.34.14l3.354 2.138 1.027-.542a9.97 9.97 0 0 1 1.622-.682l1.063-.339.912-3.648c.054-.231.138-.398.2-.485H19c-.014.02.115.195.142.34l.84 3.793 1.088.352c.511.165 1.024.38 1.523.64l1.023.53 3.224-2.053a.751.751 0 0 1 .409-.143l1.312 1.276a1.323 1.323 0 0 1-.181.45l-1.98 3.297.505.987c.273.534.48 1.033.635 1.529l.346 1.104 3.696.821c.224.041.397.17.435.24L32 18.94zm-13.988 5.07c-3.32 0-6.023-2.696-6.023-6.01 0-3.313 2.703-6.009 6.023-6.009 3.321 0 6.024 2.696 6.024 6.01 0 3.313-2.703 6.009-6.024 6.009zM18 13.999c-2.206 0-4 1.795-4 4 0 2.206 1.794 4 4 4s4-1.794 4-4c0-2.205-1.794-4-4-4z"/></svg></svg>