<svg width="12" height="18" xmlns="http://www.w3.org/2000/svg" xmlns:xlink="http://www.w3.org/1999/xlink" xmlns:svgjs="http://svgjs.com/svgjs" viewBox="0.068 0 11.865 18" fill="#008ed6"><svg xmlns="http://www.w3.org/2000/svg" width="12" height="18" viewBox="1.992 1.339 10.531 15.977"><path paint-order="stroke fill markers" fill-rule="evenodd" d="M8.56 2.34h0m0 0L7.432 8.266l4.087.013-5.564 8.037 1.129-6.522-4.087-.014L8.56 2.339m0-1l-.08.003a.833.833 0 0 0-.432.167 1.002 1.002 0 0 0-.261.253L2.184 9.178a.995.995 0 0 0-.084 1.038c.17.334.513.546.89.55l2.886.02-.908 5.347a.998.998 0 0 0 .987 1.183c.314 0 .572-.146.766-.412l5.61-8.036a.995.995 0 0 0 .085-1.038 1.006 1.006 0 0 0-.89-.55L8.64 7.276l.898-4.702a1.001 1.001 0 0 0-.941-1.235H8.56z"/></svg></svg>