<svg width="34" height="33" xmlns="http://www.w3.org/2000/svg" xmlns:xlink="http://www.w3.org/1999/xlink" xmlns:svgjs="http://svgjs.com/svgjs" viewBox="0.47 0 33.061 33" fill="#008ed6"><svg xmlns="http://www.w3.org/2000/svg" width="34" height="33" viewBox="1.969 2 32.044 31.985"><path paint-order="stroke fill markers" fill-rule="evenodd" d="M21.008 33.984c-9.089 0-9.16-.376-10.285-1.224-.597-.45-1.723-.76-5.838-1.028-.298-.02-.582-.134-.773-.365-.087-.107-2.143-3.105-2.143-7.908 0-4.732 1.471-6.89 1.534-6.99a1 1 0 0 1 .848-.47c3.378 0 8.062-4.313 11.21-11.84.545-1.303.658-2.16 2.658-2.16 1.137 0 2.413.815 3.042 1.86 1.291 2.135.636 6.72.029 9.171 2.062-.016 5.796-.045 7.572-.045 2.472 0 4.106 1.474 4.156 3.628.017.711-.077 1.62-.283 2.089.544.542 1.246 1.36 1.276 2.414.039 1.36-.852 2.396-1.42 2.99.13.395.391.92.366 1.546-.063 1.542-1.253 2.536-1.995 3.055.061.422.109 1.218-.026 1.833-.535 2.457-4.137 3.444-9.928 3.444zm-15.592-4.28c3.584.296 5.5.697 6.51 1.458.783.589.662.822 9.082.822 2.568 0 7.59-.107 7.975-1.87.153-.705-.59-1.398-.593-1.403a1.014 1.014 0 0 1 .519-1.306c.008-.003 2.004-.72 2.05-1.835.029-.714-.46-1.142-.472-1.16-.291-.452-.185-1.072.257-1.38.005-.004 1.299-.788 1.267-1.857-.024-.849-1.143-1.446-1.177-1.466a1.011 1.011 0 0 1-.306-1.482s.508-.809.49-1.566c-.037-1.623-1.782-1.674-2.156-1.674-2.522 0-9 .026-9 .026a.99.99 0 0 1-.84-.443c-.188-.28-.202-.626-.092-.944.977-2.814 1.523-7.228.617-8.735-.267-.445-.328-.89-1.328-.89-.139 0-.469.11-.813.93-3.343 7.995-8.334 12.62-12.422 13.037-.352.804-1.015 2.47-1.015 5.493 0 3.085.977 5.472 1.447 6.244z"/></svg></svg>