<svg width="33" height="27" xmlns="http://www.w3.org/2000/svg" xmlns:xlink="http://www.w3.org/1999/xlink" xmlns:svgjs="http://svgjs.com/svgjs" viewBox="0 0.088 33 26.825" fill="#008ed6"><svg xmlns="http://www.w3.org/2000/svg" width="33" height="27" viewBox="2 1.988 32 26.012"><path paint-order="stroke fill markers" fill-rule="evenodd" d="M32 3.988v17.006H4V3.988h28m0-2H4c-1.1 0-2 .9-2 2v17.006c0 1.099.9 2 2 2h28c1.1 0 2-.901 2-2V3.988c0-1.1-.9-2-2-2zM19 22v4h5a1 1 0 1 1 0 2H12a1 1 0 1 1 0-2h5v-4h2z"/></svg></svg>