<svg width="17" height="17" xmlns="http://www.w3.org/2000/svg" xmlns:xlink="http://www.w3.org/1999/xlink" xmlns:svgjs="http://svgjs.com/svgjs" viewBox="0 0.59 17 15.82" fill="#008ed6"><svg xmlns="http://www.w3.org/2000/svg" width="17" height="17" viewBox="1.041 1.283 15.98 14.871"><path paint-order="stroke fill markers" fill-rule="evenodd" d="M12.955 16.154a.5.5 0 0 1-.262-.926 6.949 6.949 0 0 0 3.328-5.955 6.998 6.998 0 0 0-6.99-6.99 6.998 6.998 0 0 0-6.99 6.99 6.957 6.957 0 0 0 3.28 5.925.5.5 0 1 1-.531.847A7.95 7.95 0 0 1 1.04 9.273c0-4.406 3.584-7.99 7.99-7.99 4.406 0 7.99 3.584 7.99 7.99a7.944 7.944 0 0 1-3.804 6.807.498.498 0 0 1-.262.074zm3.412-6.373h-.914a.5.5 0 1 1 0-1h.914a.5.5 0 1 1 0 1zM2.616 9.765h-.914a.5.5 0 1 1 0-1h.914a.5.5 0 1 1 0 1zM9.02 3.426a.5.5 0 0 1-.5-.5v-.914a.5.5 0 1 1 1 0v.914a.5.5 0 0 1-.5.5zm-3.167.782a.5.5 0 0 1-.434-.25l-.457-.791a.5.5 0 1 1 .866-.5l.457.791a.5.5 0 0 1-.432.75zm9.531 9.198a.497.497 0 0 1-.25-.067l-.792-.457a.5.5 0 1 1 .5-.866l.792.457a.5.5 0 0 1-.25.933zM3.51 6.55a.496.496 0 0 1-.25-.066l-.792-.458a.5.5 0 1 1 .5-.866l.792.457a.5.5 0 0 1-.25.933zm-.79 6.856a.5.5 0 0 1-.251-.933l.791-.457a.5.5 0 1 1 .5.866l-.791.457a.497.497 0 0 1-.25.067zM14.592 6.55a.5.5 0 0 1-.25-.933l.791-.457a.5.5 0 1 1 .5.866l-.791.458a.497.497 0 0 1-.25.066zM12.25 4.208a.5.5 0 0 1-.432-.75l.457-.791a.5.5 0 1 1 .866.5l-.457.791a.5.5 0 0 1-.434.25zM8.018 9.281a.998.998 0 1 0 1.995 0 .998.998 0 0 0-1.995 0zm4.885-2.25a.5.5 0 0 1-.183.683l-3.464 2a.5.5 0 1 1-.5-.866l3.464-2a.5.5 0 0 1 .683.183z"/></svg></svg>